<svg xmlns="http://www.w3.org/2000/svg" width="650" height="559" viewBox="0 0 3251.0 2797.3"><g transform="translate(1057.8,70.0) scale(17.7422)"><svg x="0" y="0" width="64" height="64" viewBox="0 0 64 64" overflow="visible"><defs><linearGradient id="g" x1="0" y1="0" x2="1" y2="1"><stop offset="0" stop-color="#22a7c9"/><stop offset="1" stop-color="#0a2540"/></linearGradient></defs><rect width="64" height="64" rx="16" fill="url(#g)"/><g fill="none" stroke="#fff" stroke-width="4.6" stroke-linecap="round" stroke-linejoin="round"><path d="M16 27 L32 17 L48 27"/><path d="M16 38 L32 28 L48 38"/><path d="M16 49 L32 39 L48 49"/></g></svg></g><g transform="translate(4.0,2298.7)"><path d="M66 0V-745H185L585 -218L521 -203V-745H676V0H556L163 -531L221 -546V0Z M936.0 12Q877.0 12 834.0 -7.0Q791.0 -26 768.0 -61.5Q745.0 -97 745.0 -146Q745.0 -192 766.0 -227.5Q787.0 -263 830.5 -287.0Q874.0 -311 939.0 -321L1106.0 -348V-238L966.0 -213Q934.0 -207 917.0 -192.5Q900.0 -178 900.0 -151Q900.0 -126 919.0 -112.0Q938.0 -98 966.0 -98Q1003.0 -98 1031.0 -114.0Q1059.0 -130 1074.5 -157.5Q1090.0 -185 1090.0 -218V-360Q1090.0 -391 1065.5 -412.0Q1041.0 -433 999.0 -433Q959.0 -433 928.5 -411.0Q898.0 -389 884.0 -353L764.0 -410Q780.0 -456 815.0 -489.0Q850.0 -522 899.0 -540.0Q948.0 -558 1006.0 -558Q1075.0 -558 1128.0 -533.0Q1181.0 -508 1210.5 -463.5Q1240.0 -419 1240.0 -360V0H1100.0V-88L1134.0 -94Q1110.0 -58 1081.0 -34.5Q1052.0 -11 1016.0 0.5Q980.0 12 936.0 12Z M1491.0 0 1276.0 -546H1438.0L1587.0 -133H1525.0L1674.0 -546H1836.0L1621.0 0Z" fill="#06192c"/><path d="M2043.0 0 1828.0 -546H1990.0L2139.0 -133H2077.0L2226.0 -546H2388.0L2173.0 0Z M2424.0 0V-546H2574.0V0ZM2424.0 -595V-745H2574.0V-595Z M2922.0 12Q2840.0 12 2774.5 -25.5Q2709.0 -63 2670.5 -128.0Q2632.0 -193 2632.0 -274Q2632.0 -355 2670.0 -419.5Q2708.0 -484 2774.0 -521.0Q2840.0 -558 2922.0 -558Q2983.0 -558 3035.0 -537.0Q3087.0 -516 3124.0 -478.5Q3161.0 -441 3177.0 -390L3047.0 -334Q3033.0 -375 2999.5 -399.0Q2966.0 -423 2922.0 -423Q2883.0 -423 2852.5 -404.0Q2822.0 -385 2804.5 -351.0Q2787.0 -317 2787.0 -273Q2787.0 -229 2804.5 -195.0Q2822.0 -161 2852.5 -142.0Q2883.0 -123 2922.0 -123Q2967.0 -123 3000.0 -147.0Q3033.0 -171 3047.0 -212L3177.0 -155Q3162.0 -107 3125.0 -69.0Q3088.0 -31 3036.0 -9.5Q2984.0 12 2922.0 12Z" fill="#22a7c9"/></g><g transform="translate(157.0,2725.8) scale(0.1283)"><path d="M425 12Q345.25 12.0 277.0 -16.875Q208.75 -45.75 157.625 -97.625Q106.5 -149.5 78.0 -219.5Q49.5 -289.5 49.5 -372.75Q49.5 -456.0 77.25 -526.375Q105.0 -596.75 155.375 -648.375Q205.75 -700.0 273.625 -728.5Q341.5 -757.0 422 -757Q501.75 -757.0 565.25 -730.0Q628.75 -703.0 672.875 -658.625Q717.0 -614.25 735.75 -561.25L615 -503Q593.75 -560.5 543.625 -596.875Q493.5 -633.25 422.0 -633.25Q352.0 -633.25 298.5 -600.25Q245.0 -567.25 215.375 -509.0Q185.75 -450.75 185.75 -372.75Q185.75 -295.0 216.5 -236.25Q247.25 -177.5 301.125 -144.625Q355.0 -111.75 425.0 -111.75Q481.5 -111.75 529.5 -134.375Q577.5 -157.0 606.625 -198.625Q635.75 -240.25 635.75 -297.25V-354.0L698 -300H422V-415H772V-340.25Q772.0 -253.75 743.0 -187.75Q714.0 -121.75 664.625 -77.125Q615.25 -32.5 553.0 -10.25Q490.75 12.0 425 12Z M1259.5 0.0V-745.0H1395.75V-120.0H1714.5V0.0Z M2550.0 12Q2467.5 12.0 2396.625 -16.875Q2325.75 -45.75 2272.875 -98.0Q2220.0 -150.25 2190.25 -220.375Q2160.5 -290.5 2160.5 -373.0Q2160.5 -455.5 2189.875 -525.625Q2219.25 -595.75 2272.125 -647.625Q2325.0 -699.5 2395.875 -728.25Q2466.75 -757.0 2550.0 -757Q2633.25 -757.0 2704.125 -728.125Q2775.0 -699.25 2827.875 -647.375Q2880.75 -595.5 2910.125 -525.5Q2939.5 -455.5 2939.5 -373.0Q2939.5 -290.5 2909.75 -220.375Q2880.0 -150.25 2827.125 -98.0Q2774.25 -45.75 2703.375 -16.875Q2632.5 12.0 2550.0 12ZM2550.0 -111.75Q2604.5 -111.75 2650.5 -131.25Q2696.5 -150.75 2731.0 -185.875Q2765.5 -221.0 2784.375 -268.75Q2803.25 -316.5 2803.25 -373.0Q2803.25 -429.25 2784.375 -476.625Q2765.5 -524.0 2731.0 -559.5Q2696.5 -595.0 2650.5 -614.125Q2604.5 -633.25 2550.0 -633.25Q2495.5 -633.25 2449.5 -614.125Q2403.5 -595.0 2369.0 -559.5Q2334.5 -524.0 2315.625 -476.625Q2296.75 -429.25 2296.75 -373.0Q2296.75 -316.5 2315.625 -268.75Q2334.5 -221.0 2369.0 -185.875Q2403.5 -150.75 2449.625 -131.25Q2495.75 -111.75 2550.0 -111.75Z M3440.5 0.0V-745.0H3755.0Q3828.5 -745.0 3881.375 -719.625Q3934.25 -694.25 3962.375 -647.375Q3990.5 -600.5 3990.5 -534.75Q3990.5 -483.5 3963.125 -439.0Q3935.75 -394.5 3876.0 -366.25L3875.75 -429.25Q3931.0 -408 3962.875 -376.75Q3994.75 -345.5 4008.0 -307.75Q4021.25 -270.0 4021.25 -228.25Q4021.25 -120.75 3950.625 -60.375Q3880.0 0 3755.25 0.0ZM3576.75 -120.0H3768.75Q3821.75 -120.0 3853.375 -149.625Q3885.0 -179.25 3885.0 -228Q3885.0 -277.25 3853.375 -307.125Q3821.75 -337.0 3768.75 -337.0H3576.75ZM3576.75 -456.25H3761.75Q3803.75 -456.25 3829.0 -480.375Q3854.25 -504.5 3854.25 -543.75Q3854.25 -583.25 3829.0 -606.0Q3803.75 -628.75 3761.75 -628.75H3576.75Z M4451.0 0 4708.0 -745H4884.0L5141.0 0H4993.25L4939.75 -159.5H4651.75L4598.0 0ZM4690.5 -279.5H4900.5L4777.25 -650.5H4814.75Z M5603.5 0.0V-745.0H5739.75V-120.0H6058.5V0.0Z  M7217.25 0.0V-625.0H7024.0V-745H7544.0V-625H7353.5V0.0Z M8006.5 0.0V-745.0H8284.25Q8360.25 -745.0 8418.625 -717.625Q8477.0 -690.25 8510.125 -637.625Q8543.25 -585.0 8543.25 -509.5Q8543.25 -432.75 8506.625 -378.625Q8470.0 -324.5 8408.0 -298.5L8579.0 0H8425.0L8241.5 -327.0L8330.0 -275H8142.75V0.0ZM8142.75 -395.0H8286.0Q8322.75 -395.0 8349.75 -409.375Q8376.75 -423.75 8391.875 -449.625Q8407.0 -475.5 8407.0 -509.75Q8407.0 -544.75 8391.875 -570.5Q8376.75 -596.25 8349.75 -610.625Q8322.75 -625.0 8286.0 -625H8142.75Z M8987.0 0 9244.0 -745H9420.0L9677.0 0H9529.25L9475.75 -159.5H9187.75L9134.0 0ZM9226.5 -279.5H9436.5L9313.25 -650.5H9350.75Z M10139.5 0.0V-745.0H10383.0Q10501.265454545455 -745.0 10588.632727272729 -697.625Q10676.0 -650.25 10724.0 -566.375Q10772.0 -482.5 10772.0 -372.6431718061674Q10772.0 -263.75 10724.0 -179.375Q10676.0 -95 10588.632727272729 -47.5Q10501.265454545455 0.0 10383.0 0ZM10275.75 -120.0H10386.0Q10461.959905660377 -120.0 10517.604952830188 -151.25Q10573.25 -182.5 10604.0 -239.3227848101266Q10634.75 -296.1455696202532 10634.75 -373.32278481012656Q10634.75 -450.5 10603.901785714286 -506.83131067961165Q10573.05357142857 -563.1626213592233 10517.526785714286 -594.0813106796116Q10462.0 -625 10386.0 -625H10275.75Z M11259.5 0.0V-745.0H11755.25V-625.0H11395.75V-433.5H11735.25V-313.5H11395.75V-120.0H11755.25V0.0Z  M13028.5 12.0Q12959.5 12.0 12907.625 -12.875Q12855.75 -37.75 12826.5 -83.5Q12797.25 -129.25 12797.25 -189.75Q12797.25 -240.75 12815.625 -278.5Q12834.0 -316.25 12860.875 -342.625Q12887.75 -369.0 12914.5 -386.125Q12941.25 -403.25 12958.75 -413.0L13024.25 -448.0Q13056.0 -465 13082.375 -482.375Q13108.75 -499.75 13125.0 -521.5Q13141.25 -543.25 13141.25 -571.5Q13141.25 -604.5 13119.625 -627.25Q13098.0 -650 13065.0 -650Q13032.5 -650.0 13010.25 -627.625Q12988.0 -605.25 12988.0 -570.5Q12988.0 -545.5 12999.625 -521.5Q13011.25 -497.5 13027.25 -477.125Q13043.25 -456.75 13057.75 -440.5L13452.75 0.0H13295.5L12963.25 -364.5Q12940.0 -390.25 12917.0 -419.625Q12894.0 -449 12878.875 -484.75Q12863.75 -520.5 12863.75 -564.5Q12863.75 -623.25 12891.5 -666.5Q12919.25 -709.75 12964.625 -733.375Q13010.0 -757 13063.5 -757.0Q13119.0 -757 13163.5 -732.75Q13208.0 -708.5 13234.25 -666.5Q13260.5 -624.5 13260.5 -570.75Q13260.5 -516.25 13235.25 -477.5Q13210.0 -438.75 13174.25 -412.25Q13138.5 -385.75 13107.0 -367.5L13039.75 -328.25Q13018.0 -315.75 12993.25 -297.125Q12968.5 -278.5 12951.625 -253.0Q12934.75 -227.5 12934.75 -191.75Q12934.75 -149.0 12961.5 -124.625Q12988.25 -100.25 13033.5 -100.25Q13062.0 -100.25 13084.0 -109.625Q13106.0 -119 13122.75 -133.25Q13139.5 -147.5 13151.875 -164.125Q13164.25 -180.75 13174.25 -195.0L13290.75 -364.5H13427.5L13292.75 -154.5Q13277.5 -130.25 13255.625 -101.25Q13233.75 -72.25 13202.75 -46.625Q13171.75 -21.0 13129.125 -4.5Q13086.5 12.0 13028.5 12.0Z  M14523.5 0.0V-745.0H14659.75V-120.0H14978.5V0.0Z M15814.0 12Q15731.5 12.0 15660.625 -16.875Q15589.75 -45.75 15536.875 -98.0Q15484.0 -150.25 15454.25 -220.375Q15424.5 -290.5 15424.5 -373.0Q15424.5 -455.5 15453.875 -525.625Q15483.25 -595.75 15536.125 -647.625Q15589.0 -699.5 15659.875 -728.25Q15730.75 -757.0 15814.0 -757Q15897.25 -757.0 15968.125 -728.125Q16039.0 -699.25 16091.875 -647.375Q16144.75 -595.5 16174.125 -525.5Q16203.5 -455.5 16203.5 -373.0Q16203.5 -290.5 16173.75 -220.375Q16144.0 -150.25 16091.125 -98.0Q16038.25 -45.75 15967.375 -16.875Q15896.5 12.0 15814.0 12ZM15814.0 -111.75Q15868.5 -111.75 15914.5 -131.25Q15960.5 -150.75 15995.0 -185.875Q16029.5 -221.0 16048.375 -268.75Q16067.25 -316.5 16067.25 -373.0Q16067.25 -429.25 16048.375 -476.625Q16029.5 -524.0 15995.0 -559.5Q15960.5 -595.0 15914.5 -614.125Q15868.5 -633.25 15814.0 -633.25Q15759.5 -633.25 15713.5 -614.125Q15667.5 -595.0 15633.0 -559.5Q15598.5 -524.0 15579.625 -476.625Q15560.75 -429.25 15560.75 -373.0Q15560.75 -316.5 15579.625 -268.75Q15598.5 -221.0 15633.0 -185.875Q15667.5 -150.75 15713.625 -131.25Q15759.75 -111.75 15814.0 -111.75Z M17058.0 12Q16978.25 12.0 16910.0 -16.875Q16841.75 -45.75 16790.625 -97.625Q16739.5 -149.5 16711.0 -219.5Q16682.5 -289.5 16682.5 -372.75Q16682.5 -456.0 16710.25 -526.375Q16738.0 -596.75 16788.375 -648.375Q16838.75 -700.0 16906.625 -728.5Q16974.5 -757.0 17055.0 -757Q17134.75 -757.0 17198.25 -730.0Q17261.75 -703.0 17305.875 -658.625Q17350.0 -614.25 17368.75 -561.25L17248.0 -503Q17226.75 -560.5 17176.625 -596.875Q17126.5 -633.25 17055.0 -633.25Q16985.0 -633.25 16931.5 -600.25Q16878.0 -567.25 16848.375 -509.0Q16818.75 -450.75 16818.75 -372.75Q16818.75 -295.0 16849.5 -236.25Q16880.25 -177.5 16934.125 -144.625Q16988.0 -111.75 17058.0 -111.75Q17114.5 -111.75 17162.5 -134.375Q17210.5 -157.0 17239.625 -198.625Q17268.75 -240.25 17268.75 -297.25V-354.0L17331.0 -300H17055.0V-415H17405.0V-340.25Q17405.0 -253.75 17376.0 -187.75Q17347.0 -121.75 17297.625 -77.125Q17248.25 -32.5 17186.0 -10.25Q17123.75 12.0 17058.0 12Z M17892.5 0.0V-745.0H18028.75V0.0Z M18817.5 12.0Q18747.25 12.0 18686.625 -13.875Q18626.0 -39.75 18582.625 -86.375Q18539.25 -133.0 18518.5 -194.75L18631.75 -244.25Q18659.25 -179.5 18710.125 -143.375Q18761.0 -107.25 18825.0 -107.25Q18861.0 -107.25 18887.375 -118.625Q18913.75 -130.0 18928.5 -150.125Q18943.25 -170.25 18943.25 -197.5Q18943.25 -230.75 18923.75 -252.125Q18904.25 -273.5 18864.75 -285.75L18721.75 -331.75Q18635.25 -359.25 18590.875 -412.875Q18546.5 -466.5 18546.5 -540.0Q18546.5 -604.25 18578.125 -653.125Q18609.75 -702.0 18666.25 -729.5Q18722.75 -757.0 18795.75 -757.0Q18862.75 -757.0 18918.875 -733.625Q18975.0 -710.25 19015.375 -668.75Q19055.75 -627.25 19075.5 -570.75L18963.5 -521.0Q18941.75 -576.5 18897.625 -607.125Q18853.5 -637.75 18796.0 -637.75Q18762.0 -637.75 18735.875 -626.5Q18709.75 -615.25 18695.5 -594.375Q18681.25 -573.5 18681.25 -546.0Q18681.25 -515.0 18701.25 -491.25Q18721.25 -467.5 18761.75 -454.75L18898.5 -411.5Q18988.0 -383.25 19032.625 -332.0Q19077.25 -280.75 19077.25 -206.0Q19077.25 -142.25 19044.125 -93.0Q19011.0 -43.75 18952.75 -15.875Q18894.5 12.0 18817.5 12.0Z M19711.25 0.0V-625.0H19518.0V-745H20038.0V-625H19847.5V0.0Z M20500.5 0.0V-745.0H20636.75V0.0Z M21510.0 12Q21430.25 12.0 21362.375 -16.875Q21294.5 -45.75 21244.125 -97.625Q21193.75 -149.5 21165.625 -219.5Q21137.5 -289.5 21137.5 -372.75Q21137.5 -456.0 21165.25 -526.375Q21193.0 -596.75 21243.375 -648.375Q21293.75 -700.0 21361.625 -728.5Q21429.5 -757.0 21510.0 -757Q21589.75 -757.0 21653.25 -730.0Q21716.75 -703.0 21760.875 -658.625Q21805.0 -614.25 21823.75 -561.25L21702.25 -503.5Q21681.0 -560.25 21631.0 -596.75Q21581.0 -633.25 21510.0 -633.25Q21440.0 -633.25 21386.5 -600.25Q21333.0 -567.25 21303.375 -509.0Q21273.75 -450.75 21273.75 -372.75Q21273.75 -295.0 21303.375 -236.25Q21333.0 -177.5 21386.5 -144.625Q21440.0 -111.75 21510.0 -111.75Q21581.0 -111.75 21631.0 -148.125Q21681.0 -184.5 21702.25 -241.25L21823.75 -183.5Q21805.0 -130.75 21760.875 -86.375Q21716.75 -42.0 21653.25 -15.0Q21589.75 12.0 21510.0 12Z M22579.5 12.0Q22509.25 12.0 22448.625 -13.875Q22388.0 -39.75 22344.625 -86.375Q22301.25 -133.0 22280.5 -194.75L22393.75 -244.25Q22421.25 -179.5 22472.125 -143.375Q22523.0 -107.25 22587.0 -107.25Q22623.0 -107.25 22649.375 -118.625Q22675.75 -130.0 22690.5 -150.125Q22705.25 -170.25 22705.25 -197.5Q22705.25 -230.75 22685.75 -252.125Q22666.25 -273.5 22626.75 -285.75L22483.75 -331.75Q22397.25 -359.25 22352.875 -412.875Q22308.5 -466.5 22308.5 -540.0Q22308.5 -604.25 22340.125 -653.125Q22371.75 -702.0 22428.25 -729.5Q22484.75 -757.0 22557.75 -757.0Q22624.75 -757.0 22680.875 -733.625Q22737.0 -710.25 22777.375 -668.75Q22817.75 -627.25 22837.5 -570.75L22725.5 -521.0Q22703.75 -576.5 22659.625 -607.125Q22615.5 -637.75 22558.0 -637.75Q22524.0 -637.75 22497.875 -626.5Q22471.75 -615.25 22457.5 -594.375Q22443.25 -573.5 22443.25 -546.0Q22443.25 -515.0 22463.25 -491.25Q22483.25 -467.5 22523.75 -454.75L22660.5 -411.5Q22750.0 -383.25 22794.625 -332.0Q22839.25 -280.75 22839.25 -206.0Q22839.25 -142.25 22806.125 -93.0Q22773.0 -43.75 22714.75 -15.875Q22656.5 12.0 22579.5 12.0Z" fill="#22a7c9"/></g></svg>