<svg xmlns="http://www.w3.org/2000/svg" width="638" height="167" viewBox="26.0 -785.0 3191.0 837.0"><path d="M66 0V-745H185L585 -218L521 -203V-745H676V0H556L163 -531L221 -546V0Z M936.0 12Q877.0 12 834.0 -7.0Q791.0 -26 768.0 -61.5Q745.0 -97 745.0 -146Q745.0 -192 766.0 -227.5Q787.0 -263 830.5 -287.0Q874.0 -311 939.0 -321L1106.0 -348V-238L966.0 -213Q934.0 -207 917.0 -192.5Q900.0 -178 900.0 -151Q900.0 -126 919.0 -112.0Q938.0 -98 966.0 -98Q1003.0 -98 1031.0 -114.0Q1059.0 -130 1074.5 -157.5Q1090.0 -185 1090.0 -218V-360Q1090.0 -391 1065.5 -412.0Q1041.0 -433 999.0 -433Q959.0 -433 928.5 -411.0Q898.0 -389 884.0 -353L764.0 -410Q780.0 -456 815.0 -489.0Q850.0 -522 899.0 -540.0Q948.0 -558 1006.0 -558Q1075.0 -558 1128.0 -533.0Q1181.0 -508 1210.5 -463.5Q1240.0 -419 1240.0 -360V0H1100.0V-88L1134.0 -94Q1110.0 -58 1081.0 -34.5Q1052.0 -11 1016.0 0.5Q980.0 12 936.0 12Z M1491.0 0 1276.0 -546H1438.0L1587.0 -133H1525.0L1674.0 -546H1836.0L1621.0 0Z" fill="#06192c"/><path d="M2043.0 0 1828.0 -546H1990.0L2139.0 -133H2077.0L2226.0 -546H2388.0L2173.0 0Z M2424.0 0V-546H2574.0V0ZM2424.0 -595V-745H2574.0V-595Z M2922.0 12Q2840.0 12 2774.5 -25.5Q2709.0 -63 2670.5 -128.0Q2632.0 -193 2632.0 -274Q2632.0 -355 2670.0 -419.5Q2708.0 -484 2774.0 -521.0Q2840.0 -558 2922.0 -558Q2983.0 -558 3035.0 -537.0Q3087.0 -516 3124.0 -478.5Q3161.0 -441 3177.0 -390L3047.0 -334Q3033.0 -375 2999.5 -399.0Q2966.0 -423 2922.0 -423Q2883.0 -423 2852.5 -404.0Q2822.0 -385 2804.5 -351.0Q2787.0 -317 2787.0 -273Q2787.0 -229 2804.5 -195.0Q2822.0 -161 2852.5 -142.0Q2883.0 -123 2922.0 -123Q2967.0 -123 3000.0 -147.0Q3033.0 -171 3047.0 -212L3177.0 -155Q3162.0 -107 3125.0 -69.0Q3088.0 -31 3036.0 -9.5Q2984.0 12 2922.0 12Z" fill="#22a7c9"/></svg>